<svg xmlns="http://www.w3.org/2000/svg" width="208" height="33.398" viewBox="0 0 208 33.398">
  <g id="Group_236" data-name="Group 236" transform="translate(-316 -1643.102)">
    <path id="Icon_material-star" data-name="Icon material-star" d="M20.578,29.841,31.441,36.4,28.558,24.04l9.6-8.314L25.517,14.654,20.578,3,15.638,14.654,3,15.726l9.6,8.314L9.715,36.4Z" transform="translate(313 1640.102)" fill="#e9ddc7"/>
    <path id="Icon_material-star-2" data-name="Icon material-star" d="M20.578,29.841,31.441,36.4,28.558,24.04l9.6-8.314L25.517,14.654,20.578,3,15.638,14.654,3,15.726l9.6,8.314L9.715,36.4Z" transform="translate(356.211 1640.102)" fill="#e9ddc7"/>
    <path id="Icon_material-star-3" data-name="Icon material-star" d="M20.578,29.841,31.441,36.4,28.558,24.04l9.6-8.314L25.517,14.654,20.578,3,15.638,14.654,3,15.726l9.6,8.314L9.715,36.4Z" transform="translate(399.422 1640.102)" fill="#e9ddc7"/>
    <path id="Icon_material-star-4" data-name="Icon material-star" d="M20.578,29.841,31.441,36.4,28.558,24.04l9.6-8.314L25.517,14.654,20.578,3,15.638,14.654,3,15.726l9.6,8.314L9.715,36.4Z" transform="translate(442.633 1640.102)" fill="#e9ddc7"/>
    <path id="Icon_material-star-5" data-name="Icon material-star" d="M20.578,29.841,31.441,36.4,28.558,24.04l9.6-8.314L25.517,14.654,20.578,3,15.638,14.654,3,15.726l9.6,8.314L9.715,36.4Z" transform="translate(485.845 1640.102)" fill="#e9ddc7"/>
  </g>
</svg>
